<?xml version="1.0" encoding="UTF-8" standalone="no"?>
<svg width="89px" height="89px" viewBox="0 0 89 89" version="1.1" xmlns="http://www.w3.org/2000/svg" xmlns:xlink="http://www.w3.org/1999/xlink">
    <defs></defs>
    <g stroke="none" stroke-width="1" fill="none" fill-rule="evenodd">
        <g transform="translate(-235.000000, -271.000000)" fill="#353535">
            <g transform="translate(234.000000, 105.000000)">
                <g transform="translate(1.000000, 166.000000)">
                    <g>
                        <path d="M4,5.00783553 L4,5.00783553 L4,83.9921645 C4,84.5474804 4.45236731,85 5.00783553,85 L83.9921645,85 C84.5474804,85 85,84.5476327 85,83.9921645 L85,5.00783553 C85,4.45251958 84.5476327,4 83.9921645,4 L5.00783553,4 C4.45251958,4 4,4.45236731 4,5.00783553 L4,5.00783553 Z M0,5.00783553 C0,2.24208434 2.24452473,0 5.00783553,0 L83.9921645,0 C86.7579157,0 89,2.24452473 89,5.00783553 L89,83.9921645 C89,86.7579157 86.7554753,89 83.9921645,89 L5.00783553,89 C2.24208434,89 0,86.7554753 0,83.9921645 L0,5.00783553 L0,5.00783553 Z"></path>
                        <path d="M45,20 C31.1946429,20 20,31.1946429 20,45 C20,58.8071429 31.1946429,70 45,70 C58.8053571,70 70,58.8071429 70,45 C70,31.1946429 58.8053571,20 45,20 L45,20 Z M21.7456343,43.2642255 L25.5960701,32.263738 L32.7505241,29.979612 L37.0942238,36.1879135 L33.5924747,47.4208657 L26.2105239,49.6004892 L21.7456343,43.2642255 L21.7456343,43.2642255 Z M43.8982377,64.4883014 L35.6892434,66.6896404 L26.9673194,59.5550004 L26.9673194,51.9302269 L34.3136593,49.7587221 L43.8982377,57.2833379 L43.8982377,64.4883014 L43.8982377,64.4883014 Z M39.1042077,35.2012971 L34.7207306,29.0133059 L40.0981983,22.2262008 L51.1312788,22.2262008 L55.6074709,29.3299804 L51.5517303,35.2012971 L39.1042077,35.2012971 L39.1042077,35.2012971 Z M62.5697176,60.8873257 L53.73817,66.8478733 L46.2717309,64.3565836 L46.2717309,57.1693604 L55.7762194,49.7587221 L62.5697176,52.2036426 L62.5697176,60.8873257 L62.5697176,60.8873257 Z M63.1576434,50.0751879 L56.3227432,47.5450432 L53.0757448,36.2755617 L57.0129671,30.4543106 L64.8158643,32.9823237 L67.7914027,42.7149609 L63.1576434,50.0751879 L63.1576434,50.0751879 Z"></path>
                    </g>
                </g>
            </g>
        </g>
    </g>
</svg>