<?xml version="1.0" encoding="UTF-8" standalone="no"?>
<svg width="89px" height="89px" viewBox="0 0 89 89" version="1.1" xmlns="http://www.w3.org/2000/svg" xmlns:xlink="http://www.w3.org/1999/xlink">
    <defs></defs>
    <g stroke="none" stroke-width="1" fill="none" fill-rule="evenodd">
        <g transform="translate(-334.000000, -271.000000)">
            <g transform="translate(234.000000, 105.000000)">
                <g transform="translate(1.000000, 166.000000)">
                    <g transform="translate(99.000000, 0.000000)">
                        <rect fill="#24AE6C" x="0" y="0" width="89" height="89" rx="5"></rect>
                        <path d="M69.0211757,25.2333333 L69.0170887,24.7083333 C69.0170887,24.43125 68.9087848,24.1666667 68.7166986,23.96875 C68.5266558,23.775 68.2875698,23.6375 67.9933101,23.6666667 L63.8593697,23.6791667 C63.8961522,22.675 63.9206738,21.6354167 63.9206738,20.5416667 C63.9206738,19.9666667 63.460893,19.5 62.8989387,19.5 L26.1164736,19.5 C25.5504323,19.5 25.0947385,19.9666667 25.0947385,20.5416667 C25.0947385,21.63125 25.1172166,22.6645833 25.1519556,23.6666667 L21.0077979,23.6666667 C20.4438001,23.6666667 19.9860628,24.1333333 19.9860628,24.7083333 L19.9799324,25.275 C19.9451934,28.1229167 19.8491503,35.6916667 23.7930479,39.7625 C25.3746939,41.39375 27.4181642,42.2708333 29.8662416,42.3916667 C32.0221027,45.54375 34.5743971,47.1125 36.7690842,48.45625 C39.5379864,50.15625 41.3709793,51.2770833 41.3709793,54.8979167 C41.2790231,60.0541667 39.8874198,63.25 33.2604457,63.25 C32.6964479,63.25 32.2325802,63.7166667 32.2325802,64.2916667 L32.2325802,68.4583333 C32.2325802,69.0333333 32.7046218,69.5 33.2686196,69.5 L55.7467927,69.5 C56.308747,69.5 56.7542236,69.0333333 56.7542236,68.4583333 L56.7542236,64.2916667 C56.7542236,63.7166667 56.3026166,63.25 55.7386188,63.25 C49.882033,63.25 47.4973032,60.8354167 47.4973032,54.9166667 C47.4973032,51.2645833 49.3527742,50.1291667 52.1584589,48.40625 C54.3511025,47.0625 56.8993099,45.4979167 59.063345,42.3916667 C61.5216397,42.2729167 63.5773708,41.39375 65.1651472,39.7541667 C69.1335665,35.6645833 69.0538712,28.0854167 69.0211757,25.2333333 L69.0211757,25.2333333 Z M25.1308042,38.4540607 C21.9255673,35.2383101 21.8345211,28.9442166 21.8614211,26.1037736 L25.1390811,26.1037736 C25.5674117,32.6111567 26.8213649,37.0697293 28.4622642,40.254717 C27.1565802,39.9696473 26.0516114,39.38105 25.1308042,38.4540607 L25.1308042,38.4540607 Z M41.2223143,39.3113208 C39.4737821,39.3113208 37.4913055,38.571034 36.9528302,37.965895 L37.8301215,36.4429618 C38.5319545,37.1106318 39.9073858,37.5523833 40.9258504,37.5523833 C42.3355667,37.5523833 43.4931878,37.5725546 43.4488191,35.8963195 C43.4125174,34.6255276 42.5574105,34.2826154 41.2162641,34.2826154 L38.6348093,34.2826154 L38.6348093,32.2654854 L41.2182808,32.2654854 C42.6078295,32.2654854 43.0555506,31.2145606 43.0716847,30.4621711 C43.0958858,29.1792763 42.0633039,28.7516447 40.98837,28.7859359 C40.0767938,28.802073 39.1389997,29.0078203 38.2980101,29.4576403 L37.5901268,27.8136792 C38.8344687,27.3093967 40.0465424,27.0471698 41.2384484,27.0471698 C43.745283,27.0471698 45.056178,28.4712637 45.056178,30.2523895 C45.056178,31.4142565 44.3160265,32.4530785 43.3580648,32.7213568 C44.5177027,33.0420804 45.4433962,34.2180673 45.4433962,35.6461954 C45.4433962,38.0506144 43.7614171,39.3113208 41.2223143,39.3113208 L41.2223143,39.3113208 Z M51.1037736,38.3679245 L48.856522,38.3679245 L48.856522,29.2534317 L46.8137703,29.7452864 L46.3867925,28.2251922 L51.1037736,27.0471698 L51.1037736,38.3679245 L51.1037736,38.3679245 Z M63.8511133,38.4494357 C62.9349531,39.3746424 61.8380259,39.9675131 60.5377358,40.254717 C62.1954517,37.0749602 63.462875,32.6191978 63.8963051,26.1140309 L67.1398407,26.1037736 C67.1603824,28.9717091 67.0412405,35.2286498 63.8511133,38.4494357 L63.8511133,38.4494357 Z" fill="#FFFFFF"></path>
                    </g>
                </g>
            </g>
        </g>
    </g>
</svg>