<?xml version="1.0" encoding="UTF-8" standalone="no"?>
<svg width="90px" height="89px" viewBox="0 0 90 89" version="1.1" xmlns="http://www.w3.org/2000/svg" xmlns:xlink="http://www.w3.org/1999/xlink">
    <defs></defs>
    <g stroke="none" stroke-width="1" fill="none" fill-rule="evenodd">
        <g transform="translate(-433.000000, -271.000000)">
            <g transform="translate(234.000000, 105.000000)">
                <g transform="translate(1.000000, 166.000000)">
                    <g transform="translate(198.000000, 0.000000)">
                        <rect fill="#24AE6C" x="0.5" y="0" width="89" height="89" rx="5"></rect>
                        <path d="M67.8183721,27.8333333 L63.6695772,27.8333333 C63.6467588,27.8333333 63.6260149,27.8458333 63.6052709,27.8458333 C63.5824525,27.8458333 63.5617085,27.8333333 63.5388902,27.8333333 L60.5517578,27.8333333 C60.5102699,23.2333333 56.8116192,19.5 52.2603911,19.5 L37.7396089,19.5 C33.1883808,19.5 29.4876557,23.2333333 29.4482422,27.8333333 L22.1816279,27.8333333 C21.6070198,27.8333333 21.1444291,28.3 21.1444291,28.875 L21.1444291,39.2916667 C21.1444291,39.8666667 21.6070198,40.3333333 22.1816279,40.3333333 L25.9010225,40.3333333 L28.4110435,42.8541667 C26.5793505,43.6583333 25.2932241,45.4916667 25.2932241,47.625 L25.2932241,55.26875 C25.9445849,55.0541667 26.6353592,54.9166667 27.3676215,54.9166667 L62.6323785,54.9166667 C63.3625664,54.9166667 64.0533407,55.0541667 64.7067759,55.26875 L64.7067759,47.625 C64.7067759,45.4916667 63.4206495,43.6583333 61.5889565,42.8541667 L64.0989775,40.3333333 L67.8183721,40.3333333 C68.3909058,40.3333333 68.8555709,39.8666667 68.8555709,39.2916667 L68.8555709,28.875 C68.8555709,28.3 68.3909058,27.8333333 67.8183721,27.8333333 L67.8183721,27.8333333 Z M53.2975899,23.6666667 C53.8701236,23.6666667 54.3347886,24.1333333 54.3347886,24.7083333 C54.3347886,25.2833333 53.8701236,25.75 53.2975899,25.75 C52.7229818,25.75 52.2603911,25.2833333 52.2603911,24.7083333 C52.2603911,24.1333333 52.7229818,23.6666667 53.2975899,23.6666667 L53.2975899,23.6666667 Z M46.0371987,30.9583333 C46.0371987,30.3833333 46.4997894,29.9166667 47.0743975,29.9166667 L57.4463848,29.9166667 C58.0189185,29.9166667 58.4835835,30.3833333 58.4835835,30.9583333 L58.4835835,41.375 C58.4835835,41.9520833 58.0189185,42.4166667 57.4463848,42.4166667 L47.0743975,42.4166667 C46.4997894,42.4166667 46.0371987,41.9520833 46.0371987,41.375 L46.0371987,30.9583333 L46.0371987,30.9583333 Z M36.7024101,23.6666667 C37.2749438,23.6666667 37.7396089,24.1333333 37.7396089,24.7083333 C37.7396089,25.2833333 37.2749438,25.75 36.7024101,25.75 C36.127802,25.75 35.6652114,25.2833333 35.6652114,24.7083333 C35.6652114,24.1333333 36.127802,23.6666667 36.7024101,23.6666667 L36.7024101,23.6666667 Z M31.5164165,30.9583333 C31.5164165,30.3833333 31.9790071,29.9166667 32.5536152,29.9166667 L42.9256025,29.9166667 C43.4981362,29.9166667 43.9628013,30.3833333 43.9628013,30.9583333 L43.9628013,41.375 C43.9628013,41.9520833 43.4981362,42.4166667 42.9256025,42.4166667 L32.5536152,42.4166667 C31.9790071,42.4166667 31.5164165,41.9520833 31.5164165,41.375 L31.5164165,30.9583333 L31.5164165,30.9583333 Z M27.3676215,29.9166667 L29.442019,29.9166667 L29.442019,40.94375 L27.3676215,38.8604167 L27.3676215,29.9166667 L27.3676215,29.9166667 Z M32.5536152,52.8333333 C30.8380885,52.8333333 29.442019,51.43125 29.442019,49.7083333 C29.442019,47.9854167 30.8380885,46.5833333 32.5536152,46.5833333 C34.2691419,46.5833333 35.6652114,47.9854167 35.6652114,49.7083333 C35.6652114,51.43125 34.2691419,52.8333333 32.5536152,52.8333333 L32.5536152,52.8333333 Z M49.1487949,52.8333333 L40.8180147,52.8333333 C40.245481,52.8333333 39.780816,52.3666667 39.780816,51.7916667 C39.780816,51.2166667 40.245481,50.75 40.8180147,50.75 L49.1487949,50.75 C49.7213286,50.75 50.1859937,51.2166667 50.1859937,51.7916667 C50.1859937,52.3666667 49.7213286,52.8333333 49.1487949,52.8333333 L49.1487949,52.8333333 Z M49.1487949,48.6666667 L40.8180147,48.6666667 C40.245481,48.6666667 39.780816,48.2020833 39.780816,47.625 C39.780816,47.05 40.245481,46.5833333 40.8180147,46.5833333 L49.1487949,46.5833333 C49.7213286,46.5833333 50.1859937,47.05 50.1859937,47.625 C50.1859937,48.2020833 49.7213286,48.6666667 49.1487949,48.6666667 L49.1487949,48.6666667 Z M57.4463848,52.8333333 C55.7308581,52.8333333 54.3347886,51.43125 54.3347886,49.7083333 C54.3347886,47.9854167 55.7308581,46.5833333 57.4463848,46.5833333 C59.1619115,46.5833333 60.557981,47.9854167 60.557981,49.7083333 C60.557981,51.43125 59.1619115,52.8333333 57.4463848,52.8333333 L57.4463848,52.8333333 Z M62.6323785,38.8604167 L60.557981,40.94375 L60.557981,29.9166667 L62.6323785,29.9166667 L62.6323785,38.8604167 Z M27.3676215,68.4583333 C27.3676215,69.0333333 27.8302122,69.5 28.4048203,69.5 L34.6280127,69.5 C35.2005464,69.5 35.6652114,69.0333333 35.6652114,68.4583333 L35.6652114,66.375 L27.3676215,66.375 L27.3676215,68.4583333 Z M54.3347886,68.4583333 C54.3347886,69.0333333 54.7973792,69.5 55.3719873,69.5 L61.5951797,69.5 C62.1677134,69.5 62.6323785,69.0333333 62.6323785,68.4583333 L62.6323785,66.375 L54.3347886,66.375 L54.3347886,68.4583333 Z M62.6323785,57 L27.3676215,57 C25.0795611,57 23.2188266,58.6354167 23.2188266,60.6458333 C23.2188266,62.65625 25.0795611,64.2916667 27.3676215,64.2916667 L62.6323785,64.2916667 C64.9204389,64.2916667 66.7811734,62.65625 66.7811734,60.6458333 C66.7811734,58.6354167 64.9204389,57 62.6323785,57 Z" fill="#FFFFFF"></path>
                    </g>
                </g>
            </g>
        </g>
    </g>
</svg>