<?xml version="1.0" encoding="UTF-8" standalone="no"?>
<svg width="90px" height="89px" viewBox="0 0 90 89" version="1.1" xmlns="http://www.w3.org/2000/svg" xmlns:xlink="http://www.w3.org/1999/xlink">
    <defs></defs>
    <g stroke="none" stroke-width="1" fill="none" fill-rule="evenodd">
        <g transform="translate(-532.000000, -271.000000)">
            <g transform="translate(234.000000, 105.000000)">
                <g transform="translate(1.000000, 166.000000)">
                    <g transform="translate(297.000000, 0.000000)">
                        <rect fill="#24AE6C" x="0.5" y="0" width="89" height="89" rx="5"></rect>
                        <path d="M23.125,48.6666667 L66.875,48.6666667 C67.45,48.6666667 67.9166667,48.2020833 67.9166667,47.625 L67.9166667,26.7916667 C67.9166667,26.2145833 67.45,25.75 66.875,25.75 L51.25,25.75 L51.25,24.7083333 C51.25,24.13125 50.7833333,23.6666667 50.2083333,23.6666667 L46.0416667,23.6666667 L46.0416667,20.5416667 C46.0416667,19.9645833 45.575,19.5 45,19.5 C44.425,19.5 43.9583333,19.9645833 43.9583333,20.5416667 L43.9583333,23.6666667 L39.7916667,23.6666667 C39.2166667,23.6666667 38.75,24.13125 38.75,24.7083333 L38.75,25.75 L23.125,25.75 C22.55,25.75 22.0833333,26.2145833 22.0833333,26.7916667 L22.0833333,47.625 C22.0833333,48.2020833 22.55,48.6666667 23.125,48.6666667 L23.125,48.6666667 Z M40.8333333,25.75 L49.1666667,25.75 L49.1666667,27.8333333 L40.8333333,27.8333333 L40.8333333,25.75 Z M66.875,50.75 L23.125,50.75 C21.4020833,50.75 20,52.1520833 20,53.875 C20,55.5979167 21.4020833,57 23.125,57 L32.8979167,57 L27.4020833,67.99375 C27.14375,68.50625 27.3520833,69.1333333 27.8666667,69.3895833 C28.0166667,69.4645833 28.175,69.5 28.3333333,69.5 C28.7145833,69.5 29.08125,69.2895833 29.2645833,68.9229167 L35.2270833,57 L42.9166667,57 L42.9166667,68.4583333 C42.9166667,69.0333333 43.3833333,69.5 43.9583333,69.5 C44.5333333,69.5 45,69.0333333 45,68.4583333 L45,57 L54.7729167,57 L60.7354167,68.9229167 C60.91875,69.2895833 61.2854167,69.5 61.66875,69.5 C61.825,69.5 61.9833333,69.4645833 62.1333333,69.3895833 C62.6479167,69.1333333 62.85625,68.50625 62.5979167,67.99375 L57.1020833,57 L66.875,57 C68.5979167,57 70,55.5979167 70,53.875 C70,52.1520833 68.5979167,50.75 66.875,50.75 Z" fill="#FFFFFF"></path>
                    </g>
                </g>
            </g>
        </g>
    </g>
</svg>